<?xml version="1.0" encoding="UTF-8" standalone="no"?>
<!-- Created with Inkscape (http://www.inkscape.org/) -->

<svg
   xmlns:svg="http://www.w3.org/2000/svg"
   xmlns="http://www.w3.org/2000/svg"
   xmlns:xlink="http://www.w3.org/1999/xlink"
   version="1.0"
   width="128"
   height="100"
   id="s1">
  <defs
     id="d1">
    <filter
       color-interpolation-filters="sRGB"
       id="Gaussian_Blur">
      <feGaussianBlur
         in="SourceGraphic"
         stdDeviation="2"
         id="feGaussianBlur6" />
    </filter>
    <linearGradient
       x1="215.76559"
       y1="-278.12701"
       x2="222.8434"
       y2="-212.7417"
       id="linearGradient2589"
       xlink:href="#SVGID_1_"
       gradientUnits="userSpaceOnUse"
       gradientTransform="matrix(1,0,0,-1,-156,-197)" />
    <linearGradient
       x1="186.625"
       y1="-258.70209"
       x2="186.625"
       y2="-248.506"
       id="linearGradient2591"
       xlink:href="#SVGID_2_"
       gradientUnits="userSpaceOnUse"
       gradientTransform="matrix(1,0,0,-1,-156,-197)" />
    <linearGradient
       x1="237.36909"
       y1="-274.5654"
       x2="237.36909"
       y2="-223.01669"
       id="linearGradient2593"
       xlink:href="#SVGID_3_"
       gradientUnits="userSpaceOnUse"
       gradientTransform="matrix(1,0,0,-1,-156,-197)" />
    <linearGradient
       x1="199.0293"
       y1="-265.77731"
       x2="278.44339"
       y2="-265.77731"
       id="linearGradient2595"
       xlink:href="#SVGID_4_"
       gradientUnits="userSpaceOnUse"
       gradientTransform="matrix(1,0,0,-1,-156,-197)" />
    <linearGradient
       x1="183.9668"
       y1="-253.47659"
       x2="183.9668"
       y2="-250.61259"
       id="linearGradient2597"
       xlink:href="#SVGID_5_"
       gradientUnits="userSpaceOnUse"
       gradientTransform="matrix(1,0,0,-1,-156,-197)" />
    <linearGradient
       x1="116.0586"
       y1="-316.23441"
       x2="116.0586"
       y2="-313.37051"
       id="linearGradient2599"
       xlink:href="#SVGID_6_"
       gradientUnits="userSpaceOnUse"
       gradientTransform="matrix(0.9448,-0.3275,-0.3275,-0.9448,-130.09,-201.974)" />
  </defs>
  <linearGradient
     x1="215.76559"
     y1="-278.12701"
     x2="222.8434"
     y2="-212.7417"
     id="SVGID_1_"
     gradientUnits="userSpaceOnUse"
     gradientTransform="matrix(1,0,0,-1,-156,-197)">
    <stop
       id="stop11"
       style="stop-color:#20abff;stop-opacity:1"
       offset="0" />
    <stop
       id="stop13"
       style="stop-color:#1572de;stop-opacity:1"
       offset="0.58380002" />
    <stop
       id="stop15"
       style="stop-color:#0938bc;stop-opacity:1"
       offset="0.85280001" />
  </linearGradient>
  <linearGradient
     x1="186.625"
     y1="-258.70209"
     x2="186.625"
     y2="-248.506"
     id="SVGID_2_"
     gradientUnits="userSpaceOnUse"
     gradientTransform="matrix(1,0,0,-1,-156,-197)">
    <stop
       id="stop20"
       style="stop-color:#20d4ff;stop-opacity:1"
       offset="0" />
    <stop
       id="stop22"
       style="stop-color:#20adff;stop-opacity:1"
       offset="1" />
  </linearGradient>
  <linearGradient
     x1="237.36909"
     y1="-274.5654"
     x2="237.36909"
     y2="-223.01669"
     id="SVGID_3_"
     gradientUnits="userSpaceOnUse"
     gradientTransform="matrix(1,0,0,-1,-156,-197)">
    <stop
       id="stop29"
       style="stop-color:#3aefff;stop-opacity:1"
       offset="0" />
    <stop
       id="stop31"
       style="stop-color:#20abff;stop-opacity:1"
       offset="0.54820001" />
    <stop
       id="stop33"
       style="stop-color:#1ea1f9;stop-opacity:1"
       offset="0.61900002" />
    <stop
       id="stop35"
       style="stop-color:#1986e9;stop-opacity:1"
       offset="0.73989999" />
    <stop
       id="stop37"
       style="stop-color:#105ad0;stop-opacity:1"
       offset="0.8955" />
    <stop
       id="stop39"
       style="stop-color:#0938bc;stop-opacity:1"
       offset="1" />
  </linearGradient>
  <linearGradient
     x1="199.0293"
     y1="-265.77731"
     x2="278.44339"
     y2="-265.77731"
     id="SVGID_4_"
     gradientUnits="userSpaceOnUse"
     gradientTransform="matrix(1,0,0,-1,-156,-197)">
    <stop
       id="stop44"
       style="stop-color:#20abff;stop-opacity:1"
       offset="0" />
    <stop
       id="stop46"
       style="stop-color:#2057d9;stop-opacity:1"
       offset="1" />
  </linearGradient>
  <linearGradient
     x1="183.9668"
     y1="-253.47659"
     x2="183.9668"
     y2="-250.61259"
     id="SVGID_5_"
     gradientUnits="userSpaceOnUse"
     gradientTransform="matrix(1,0,0,-1,-156,-197)">
    <stop
       id="stop53"
       style="stop-color:#a3e0ff;stop-opacity:1"
       offset="0" />
    <stop
       id="stop55"
       style="stop-color:#ffffff;stop-opacity:1"
       offset="1" />
  </linearGradient>
  <linearGradient
     x1="116.0586"
     y1="-316.23441"
     x2="116.0586"
     y2="-313.37051"
     id="SVGID_6_"
     gradientUnits="userSpaceOnUse"
     gradientTransform="matrix(0.9448,-0.3275,-0.3275,-0.9448,-130.09,-201.974)">
    <stop
       id="stop60"
       style="stop-color:#a3e0ff;stop-opacity:1"
       offset="0" />
    <stop
       id="stop62"
       style="stop-color:#ffffff;stop-opacity:1"
       offset="1" />
  </linearGradient>
  <g
     transform="translate(1.21228,-2.95804)"
     id="g2579">
    <path
       d="m 3.269,61.407 c 0,0 -0.076,-6.572 -0.084,-8.765 C 3.173,49.495 4.28,43.88 6.555,38.74 8.829,33.6 9.43,32.19 11.452,32.19 c 2.022,0 42.036,0.315 42.036,0.315 l 3.371,-15.504 c 0,0 0.505,-3.202 2.444,-3.792 1.938,-0.59 5.392,1.179 5.392,1.179 0,0 40.067,19.612 53.211,26.121 1.074,0.531 4.15,2.085 4.17,3.202 0.035,1.855 0.171,11.375 0.171,11.375 0,0 0.379,2.507 -1.603,3.454 -1.977,0.946 -68.924,25.151 -68.924,25.151 0,0 -3.245,1.309 -4.804,1.266 -2.57,-0.07 -4.087,-0.8 -4.129,-6.866 -0.028,-3.962 1.095,-10.194 1.095,-10.194 L 9.334,67.475 c 0,0 -2.428,0.155 -4.381,-1.938 -1.874,-2.014 -1.684,-4.13 -1.684,-4.13 z"
       id="path17"
       style="fill:url(#linearGradient2589) #000000" />
    <path
       d="M 49.463,65.747 8.933,65.832 6.91,64.566 c 0,0 -0.59,-3.116 -0.505,-6.571 0.085,-3.455 0.084,-3.455 0.084,-3.455 0,0 -0.084,-3.201 3.539,-3.286 3.623,-0.085 44.826,-0.253 44.826,-0.253 l -5.391,14.746 z"
       id="path24"
       style="fill:url(#linearGradient2591) #000000" />
    <path
       d="m 3.236,58.395 c 0,0 -0.758,5.311 1.833,7.395 1.324,1.064 2.948,1.703 4.192,1.729 8.595,0.168 34.621,0.379 34.621,0.379 0,0 -1.337,7.162 -1.169,9.773 0.147,2.271 2.422,3.803 2.422,3.803 0,0 1.078,-5.709 1.928,-8.216 0.8,-2.358 2.863,-7.687 1.906,-8.815 -0.821,-0.97 -39.329,0.271 -39.329,0.271 0,0 -2.928,0.2 -4.382,-1.38 C 3.907,61.865 3.236,58.395 3.236,58.395 z"
       id="path26"
       style="fill:#20bfff" />
    <path
       d="m 45.493,78.723 13.482,-52.073 4.719,-0.843 53.251,29.154 c 0,0 2.022,1.518 -0.506,2.528 -2.526,1.011 -68.083,24.771 -68.083,24.771 0,0 -2.066,0.751 -3.034,0 -0.756,-0.588 0.171,-3.537 0.171,-3.537 z"
       id="path41"
       style="fill:url(#linearGradient2593) #000000" />
    <path
       d="m 49.18,82.389 c 0,0 66.071,-24.488 67.683,-25.09 1.621,-0.604 5.135,-1.801 5.197,-3.775 0.111,-3.474 1.265,4.093 -1.068,4.979 -1.91,0.725 -69.642,25.362 -69.642,25.362 0,0 -2.232,1.096 -4.739,1.073 -3.581,-0.029 -3.581,-3.58 -3.581,-3.58 0,0 2.612,1.662 3.623,1.662 1.011,0 2.527,-0.631 2.527,-0.631 z"
       id="path48"
       style="fill:url(#linearGradient2595) #000000" />
    <path
       d="m 5.575,47.314 c 0,0 2.549,-7.436 3.666,-10.238 1.221,-3.063 2.212,-2.928 2.212,-2.928 l 44.237,0.084 c 0,0 1.424,-7.97 2.359,-11.965 0.927,-3.96 1.606,-6.962 2.443,-7.12 1.428,-0.27 41.267,18.927 41.541,20.013 0.346,1.374 -5.168,9.218 -15.883,14.998 -9.606,5.182 -9.732,5.141 -16.559,7.668 -6.825,2.527 -11.88,3.623 -15.588,3.707 -3.707,0.084 -4.855,0.475 -5.361,-0.254 -0.671,-0.965 2.075,-4.213 2.075,-5.981 0,-1.69 -0.485,-3.55 -3.497,-5.708 C 43.724,47.083 33.967,47.098 29.463,47.189 23.745,47.302 5.575,47.314 5.575,47.314 z"
       id="path50"
       style="opacity:0.6;fill:#ffffff" />
    <path
       d="m 50.128,54.961 c 0,1.023 -0.83,1.854 -1.854,1.854 H 7.66 c -1.023,0 -1.854,-0.828 -1.854,-1.854 l 0,0 c 0,-1.023 0.83,-1.854 1.854,-1.854 h 40.614 c 1.024,0 1.854,0.831 1.854,1.854 l 0,0 z"
       id="path57"
       style="opacity:0.7;fill:url(#linearGradient2597) #000000" />
    <path
       d="m 119.632,44.537 c 0.335,0.968 -0.776,2.23 -2.487,2.824 L 49.334,70.866 c -1.709,0.593 -3.367,0.29 -3.703,-0.679 l 0,0 c -0.334,-0.967 0.78,-2.23 2.488,-2.823 l 67.813,-23.506 c 1.709,-0.593 3.364,-0.289 3.7,0.679 l 0,0 z"
       id="path64"
       style="opacity:0.7;fill:url(#linearGradient2599) #000000" />
  </g>
</svg>
